<?xml version="1.0" standalone="no"?>
<!DOCTYPE svg PUBLIC "-//W3C//DTD SVG 20010904//EN"
 "http://www.w3.org/TR/2001/REC-SVG-20010904/DTD/svg10.dtd">
<svg version="1.0" xmlns="http://www.w3.org/2000/svg"
 width="300.000000pt" height="300.000000pt" viewBox="0 0 300.000000 300.000000"
 preserveAspectRatio="xMidYMid meet">
<metadata>
Created by potrace 1.14, written by Peter Selinger 2001-2017
</metadata>
<g transform="translate(0.000000,300.000000) scale(0.100000,-0.100000)"
fill="#000000" stroke="none">
<path d="M1418 2975 c-2 -1 -34 -5 -73 -8 -168 -15 -302 -53 -475 -134 -114
-53 -169 -87 -275 -169 -181 -140 -314 -303 -419 -512 -38 -76 -92 -215 -101
-261 -2 -9 -10 -47 -19 -86 -41 -181 -41 -444 0 -601 25 -97 94 -243 166 -350
271 -407 723 -604 1189 -519 62 11 209 58 274 88 192 87 337 205 472 385 49
65 49 79 1 29 -149 -156 -396 -262 -629 -271 -154 -6 -305 27 -444 97 -275
137 -459 384 -510 682 -15 87 -21 252 -11 300 2 11 7 40 11 65 45 291 240 594
504 784 161 115 370 203 535 222 22 3 43 7 47 10 10 6 247 6 279 0 14 -3 43
-7 65 -11 22 -3 58 -11 80 -16 22 -6 45 -12 50 -13 121 -23 402 -173 503 -269
41 -39 42 -23 1 23 -154 177 -299 291 -487 385 -102 51 -269 108 -352 121 -19
3 -42 7 -50 9 -40 11 -323 28 -332 20z"/>
<path d="M1778 2676 c-1 -2 -43 -6 -91 -10 -49 -3 -92 -8 -95 -10 -4 -2 -23
-7 -42 -10 -62 -10 -184 -53 -261 -91 -169 -85 -344 -231 -464 -386 -48 -62
-43 -64 19 -6 105 97 304 208 418 233 169 36 262 41 389 19 290 -51 532 -223
673 -479 35 -62 83 -206 92 -271 3 -27 8 -54 11 -58 12 -19 3 -272 -12 -351
-32 -174 -112 -354 -219 -497 -206 -273 -490 -442 -831 -493 -84 -12 -288 -13
-345 -1 -14 2 -50 10 -80 16 -209 41 -426 158 -584 316 -42 42 -76 74 -76 71
0 -9 98 -129 145 -178 246 -259 562 -419 903 -456 109 -13 376 -6 423 10 8 3
32 8 54 11 64 9 265 80 352 123 244 123 478 341 613 571 88 151 164 354 184
491 16 110 19 144 20 235 4 273 -67 491 -233 712 -157 208 -346 348 -573 421
-117 38 -182 52 -283 58 -44 3 -85 7 -92 9 -6 2 -13 2 -15 1z"/>
<path d="M1228 1962 c-7 -2 -61 -26 -119 -54 -105 -51 -107 -53 -116 -95 -11
-46 -12 -45 45 -46 27 -1 27 -1 -3 -150 -26 -133 -32 -164 -41 -217 -3 -19 -7
-37 -9 -40 -2 -3 -6 -26 -10 -50 -11 -82 -25 -111 -59 -125 -39 -17 -52 -31
-58 -68 l-5 -27 241 2 241 3 3 37 c3 30 -1 39 -20 49 -13 7 -26 17 -30 23 -8
11 -3 58 12 116 5 19 12 51 15 70 3 19 28 149 55 289 28 140 50 261 50 270 0
13 -15 16 -90 16 -49 0 -96 -1 -102 -3z"/>
<path d="M1565 1944 c-59 -30 -86 -66 -92 -120 -4 -37 24 -66 80 -84 46 -15
63 -41 39 -62 -35 -31 -53 -30 -86 5 -42 45 -57 42 -72 -15 -6 -27 -11 -48
-10 -49 0 0 39 -3 86 -5 109 -6 160 12 201 69 54 74 37 126 -51 158 -42 15
-60 27 -60 39 0 37 65 41 82 6 12 -27 37 -41 49 -29 4 4 11 26 14 48 7 40 6
41 -22 42 -15 1 -51 4 -78 7 -36 4 -60 1 -80 -10z"/>
<path d="M1796 1941 c-18 -65 -18 -81 2 -81 11 0 27 11 36 25 9 14 22 25 30
25 18 0 -33 -237 -55 -254 -8 -6 -18 -19 -22 -28 -5 -16 3 -17 79 -17 89 0
111 12 84 44 -9 11 -9 27 1 72 7 32 13 60 14 63 0 3 4 23 8 45 16 83 29 97 47
50 12 -31 50 -35 50 -5 0 26 1 31 10 55 8 20 4 21 -136 21 -122 0 -145 -2
-148 -15z"/>
</g>
</svg>
